<?xml version="1.0" encoding="UTF-8" standalone="no"?><!DOCTYPE svg PUBLIC "-//W3C//DTD SVG 1.1//EN" "http://www.w3.org/Graphics/SVG/1.1/DTD/svg11.dtd"><svg width="100%" height="100%" viewBox="0 0 256 256" version="1.1" xmlns="http://www.w3.org/2000/svg" xmlns:xlink="http://www.w3.org/1999/xlink" xml:space="preserve" xmlns:serif="http://www.serif.com/" style="fill-rule:evenodd;clip-rule:evenodd;stroke-linejoin:round;stroke-miterlimit:2;"><g><path d="M50,166.1c0,-6.899 -5.601,-12.5 -12.5,-12.5l-25,0c-6.899,0 -12.5,5.601 -12.5,12.5l0,77.4c0,6.899 5.601,12.5 12.5,12.5l25,0c6.899,0 12.5,-5.601 12.5,-12.5l0,-77.4Z" style="fill:#006bad;"/><path d="M118.667,114.9c0,-6.899 -5.601,-12.5 -12.5,-12.5l-25,0c-6.899,0 -12.5,5.601 -12.5,12.5l0,128.6c0,6.899 5.601,12.5 12.5,12.5l25,0c6.899,0 12.5,-5.601 12.5,-12.5l0,-128.6Z" style="fill:#006bad;"/><path d="M187.333,63.7c0,-6.899 -5.601,-12.5 -12.5,-12.5l-25,0c-6.899,0 -12.5,5.601 -12.5,12.5l0,179.8c0,6.899 5.601,12.5 12.5,12.5l25,0c6.899,0 12.5,-5.601 12.5,-12.5l0,-179.8Z" style="fill:#006bad;"/><path d="M256,12.5c0,-6.899 -5.601,-12.5 -12.5,-12.5l-25,0c-6.899,0 -12.5,5.601 -12.5,12.5l0,231c0,6.899 5.601,12.5 12.5,12.5l25,0c6.899,0 12.5,-5.601 12.5,-12.5l0,-231Z" style="fill:#006bad;"/></g></svg>